<?xml version="1.0" encoding="utf-8"?>
<!-- Generator: Adobe Illustrator 19.0.0, SVG Export Plug-In . SVG Version: 6.00 Build 0)  -->
<svg version="1.1" id="Layer_1" xmlns="http://www.w3.org/2000/svg" xmlns:xlink="http://www.w3.org/1999/xlink" x="0px" y="0px"
	 viewBox="0 0 960 560" style="enable-background:new 0 0 960 560;" xml:space="preserve">
<style type="text/css">
	.st0{fill:#FFFFFF;stroke:#000000;stroke-miterlimit:10;}
	.st1{fill:#FFFFFF;stroke:#FFFFFF;stroke-miterlimit:10;}
</style>
<g id="XMLID_6_">
	<g id="XMLID_1_">
		<g id="XMLID_25_">
			<path id="XMLID_4_" class="st0" d="M553.4,208.3c0,7.4-0.5,14.8-1.4,22.2c0.4-2.7,0.7-5.3,1.1-8c-2.1,15.2-6.1,30-12,44.1
				c1-2.4,2-4.8,3-7.2c-4.2,9.7-9.2,19-15.1,27.8c-1.5,2.2-3,4.3-4.5,6.4c-3.4,4.6,1.3-0.5,1.5-1.9c-0.1,0.9-1.9,2.3-2.5,3.1
				c-3.5,4.2-7.1,8.3-11,12.1c-3.7,3.7-7.6,7.2-11.6,10.6c-1,0.8-2.1,1.6-3.1,2.5c-2.4,2.1,6.8-5,1.9-1.5c-2.1,1.5-4.2,3.1-6.4,4.6
				c-9,6-18.5,11.2-28.4,15.4c2.4-1,4.8-2,7.2-3c-14.1,5.9-28.9,10-44.1,12c2.7-0.4,5.3-0.7,8-1.1c-14.8,1.9-29.7,1.9-44.5,0
				c2.7,0.4,5.3,0.7,8,1.1c-15.2-2.1-30-6.1-44.1-12c2.4,1,4.8,2,7.2,3c-9.7-4.2-19-9.2-27.8-15.1c-2.2-1.5-4.3-3-6.4-4.5
				c-4.6-3.4,0.5,1.3,1.9,1.5c-0.9-0.1-2.3-1.9-3.1-2.5c-4.2-3.5-8.3-7.1-12.1-11c-3.7-3.7-7.2-7.6-10.6-11.6
				c-0.8-1-1.6-2.1-2.5-3.1c-2.1-2.4,5,6.8,1.5,1.9c-1.5-2.1-3.1-4.2-4.6-6.4c-6-9-11.2-18.5-15.4-28.4c1,2.4,2,4.8,3,7.2
				c-5.9-14.1-10-28.9-12-44.1c0.4,2.7,0.7,5.3,1.1,8c-1.9-14.8-1.9-29.7,0-44.5c-0.4,2.7-0.7,5.3-1.1,8c2.1-15.2,6.1-30,12-44.1
				c-1,2.4-2,4.8-3,7.2c4.2-9.7,9.2-19,15.1-27.8c1.5-2.2,3-4.3,4.5-6.4c3.4-4.6-1.3,0.5-1.5,1.9c0.1-0.9,1.9-2.3,2.5-3.1
				c3.5-4.2,7.1-8.3,11-12.1c3.7-3.7,7.6-7.2,11.6-10.6c1-0.8,2.1-1.6,3.1-2.5c2.4-2.1-6.8,5-1.9,1.5c2.1-1.5,4.2-3.1,6.4-4.6
				c9-6,18.5-11.2,28.4-15.4c-2.4,1-4.8,2-7.2,3c14.1-5.9,28.9-10,44.1-12c-2.7,0.4-5.3,0.7-8,1.1c14.8-1.9,29.7-1.9,44.5,0
				c-2.7-0.4-5.3-0.7-8-1.1c15.2,2.1,30,6.1,44.1,12c-2.4-1-4.8-2-7.2-3c9.7,4.2,19,9.2,27.8,15.1c2.2,1.5,4.3,3,6.4,4.5
				c4.6,3.4-0.5-1.3-1.9-1.5c0.9,0.1,2.3,1.9,3.1,2.5c4.2,3.5,8.3,7.1,12.1,11c3.7,3.7,7.2,7.6,10.6,11.6c0.8,1,1.6,2.1,2.5,3.1
				c2.1,2.4-5-6.8-1.5-1.9c1.5,2.1,3.1,4.2,4.6,6.4c6,9,11.2,18.5,15.4,28.4c-1-2.4-2-4.8-3-7.2c5.9,14.1,10,28.9,12,44.1
				c-0.4-2.7-0.7-5.3-1.1-8C552.9,193.5,553.4,200.9,553.4,208.3c0.1,15.7,13.8,30.7,30,30s30.1-13.2,30-30
				c-0.2-40.1-12.2-80.9-35.6-113.7c-24.5-34.3-57.6-59.8-97.2-74.4c-76.1-28.2-167.5-3.6-219.1,59c-27.3,33.1-43.4,72.3-46.9,115.1
				c-3.3,40.2,7,82.1,27.8,116.7c20.1,33.4,50.6,61.7,86.2,77.9c39.9,18.1,83.1,23.4,126.2,14.9c78.1-15.4,143.3-82.3,155.6-161.1
				c1.8-11.4,3.1-22.8,3.1-34.3c0.1-15.7-13.8-30.7-30-30C567.1,179,553.5,191.5,553.4,208.3z"/>
		</g>
	</g>
</g>
<g id="XMLID_3_">
	
		<rect id="XMLID_22_" x="159.3" y="409.8" transform="matrix(-0.5708 0.8211 -0.8211 -0.5708 759.46 459.574)" class="st1" width="200.6" height="36.9"/>
	<g id="XMLID_17_">
		<path id="XMLID_21_" class="st1" d="M306.1,341.3c-12.9,18.6-25.8,37.1-38.7,55.7c-20.6,29.6-41.1,59.1-61.7,88.7
			c-4.7,6.8-9.4,13.5-14.1,20.3c13.7-3.6,27.4-7.2,41-10.8c-10.1-7-20.2-14.1-30.3-21.1c3.6,13.7,7.2,27.4,10.8,41
			c12.9-18.6,25.8-37.1,38.7-55.7c20.6-29.6,41.1-59.1,61.7-88.7c4.7-6.8,9.4-13.5,14.1-20.3c-13.7,3.6-27.4,7.2-41,10.8
			c10.1,7,20.2,14.1,30.3,21.1c6.1,4.2,16.2,4.9,23.1,3c7-1.9,14.5-7.3,17.9-13.8c8.1-15.3,3-31.5-10.8-41
			c-10.1-7-20.2-14.1-30.3-21.1c-5.8-4.1-16.5-5.2-23.1-3c-7.8,2.5-13.3,7.1-17.9,13.8c-12.9,18.6-25.8,37.1-38.7,55.7
			c-20.6,29.6-41.1,59.1-61.7,88.7c-4.7,6.8-9.4,13.5-14.1,20.3c-4.1,5.8-5.2,16.5-3,23.1c2.5,7.8,7.1,13.3,13.8,17.9
			c10.1,7,20.2,14.1,30.3,21.1c5.8,4.1,16.5,5.2,23.1,3c7.8-2.5,13.3-7.1,17.9-13.8c12.9-18.6,25.8-37.1,38.7-55.7
			c20.6-29.6,41.1-59.1,61.7-88.7c4.7-6.8,9.4-13.5,14.1-20.3c4.2-6.1,4.9-16.2,3-23.1c-1.9-7-7.3-14.5-13.8-17.9
			C331.9,322.4,315.7,327.5,306.1,341.3z"/>
	</g>
</g>
</svg>
